<mxfile host="app.diagrams.net" modified="2023-12-29T08:25:45.113Z" agent="Mozilla/5.0 (Windows NT 10.0; Win64; x64) AppleWebKit/537.36 (KHTML, like Gecko) Chrome/120.0.0.0 Safari/537.36" etag="U_FIL-_Hzq26Ds_93RE6" version="22.1.15" type="github">
  <diagram name="페이지-1" id="13OmgTKoOKMh2cI8QElQ">
    <mxGraphModel dx="1195" dy="1819" grid="1" gridSize="10" guides="1" tooltips="1" connect="1" arrows="1" fold="1" page="1" pageScale="1" pageWidth="827" pageHeight="1169" math="0" shadow="0">
      <root>
        <mxCell id="0" />
        <mxCell id="1" parent="0" />
        <mxCell id="0s97cXIPQVOTWRCdV7om-13" value="이름" style="ellipse;whiteSpace=wrap;html=1;align=center;" vertex="1" parent="1">
          <mxGeometry x="240" y="-1120" width="100" height="40" as="geometry" />
        </mxCell>
        <mxCell id="0s97cXIPQVOTWRCdV7om-14" value="학생" style="whiteSpace=wrap;html=1;align=center;" vertex="1" parent="1">
          <mxGeometry x="60" y="-1000" width="100" height="40" as="geometry" />
        </mxCell>
        <mxCell id="0s97cXIPQVOTWRCdV7om-15" value="" style="endArrow=none;html=1;rounded=0;exitX=1;exitY=0.5;exitDx=0;exitDy=0;entryX=0;entryY=0.5;entryDx=0;entryDy=0;" edge="1" parent="1" source="0s97cXIPQVOTWRCdV7om-14" target="0s97cXIPQVOTWRCdV7om-13">
          <mxGeometry relative="1" as="geometry">
            <mxPoint x="130" y="-720" as="sourcePoint" />
            <mxPoint x="290" y="-720" as="targetPoint" />
          </mxGeometry>
        </mxCell>
        <mxCell id="0s97cXIPQVOTWRCdV7om-16" value="전화번호" style="ellipse;whiteSpace=wrap;html=1;align=center;verticalAlign=middle;fontStyle=4" vertex="1" parent="1">
          <mxGeometry x="240" y="-1040" width="100" height="40" as="geometry" />
        </mxCell>
        <mxCell id="0s97cXIPQVOTWRCdV7om-17" value="e-mail" style="ellipse;whiteSpace=wrap;html=1;align=center;fontStyle=4" vertex="1" parent="1">
          <mxGeometry x="240" y="-960" width="100" height="40" as="geometry" />
        </mxCell>
        <mxCell id="0s97cXIPQVOTWRCdV7om-18" value="나이" style="ellipse;whiteSpace=wrap;html=1;align=center;" vertex="1" parent="1">
          <mxGeometry x="240" y="-884" width="100" height="40" as="geometry" />
        </mxCell>
        <mxCell id="0s97cXIPQVOTWRCdV7om-19" value="" style="endArrow=none;html=1;rounded=0;entryX=0;entryY=0.5;entryDx=0;entryDy=0;exitX=1;exitY=0.5;exitDx=0;exitDy=0;" edge="1" parent="1" source="0s97cXIPQVOTWRCdV7om-14" target="0s97cXIPQVOTWRCdV7om-16">
          <mxGeometry relative="1" as="geometry">
            <mxPoint x="200" y="-930" as="sourcePoint" />
            <mxPoint x="250" y="-1090" as="targetPoint" />
          </mxGeometry>
        </mxCell>
        <mxCell id="0s97cXIPQVOTWRCdV7om-20" value="" style="endArrow=none;html=1;rounded=0;exitX=1;exitY=0.5;exitDx=0;exitDy=0;entryX=0;entryY=0.5;entryDx=0;entryDy=0;" edge="1" parent="1" source="0s97cXIPQVOTWRCdV7om-14" target="0s97cXIPQVOTWRCdV7om-17">
          <mxGeometry relative="1" as="geometry">
            <mxPoint x="160" y="-960" as="sourcePoint" />
            <mxPoint x="260" y="-1080" as="targetPoint" />
          </mxGeometry>
        </mxCell>
        <mxCell id="0s97cXIPQVOTWRCdV7om-21" value="" style="endArrow=none;html=1;rounded=0;exitX=1;exitY=0.5;exitDx=0;exitDy=0;entryX=0;entryY=0.5;entryDx=0;entryDy=0;" edge="1" parent="1" source="0s97cXIPQVOTWRCdV7om-14" target="0s97cXIPQVOTWRCdV7om-18">
          <mxGeometry relative="1" as="geometry">
            <mxPoint x="170" y="-950" as="sourcePoint" />
            <mxPoint x="270" y="-1070" as="targetPoint" />
          </mxGeometry>
        </mxCell>
        <mxCell id="0s97cXIPQVOTWRCdV7om-22" value="number" style="ellipse;whiteSpace=wrap;html=1;align=center;fontStyle=4;" vertex="1" parent="1">
          <mxGeometry x="400" y="-1000" width="100" height="40" as="geometry" />
        </mxCell>
        <mxCell id="0s97cXIPQVOTWRCdV7om-23" value="" style="endArrow=none;html=1;rounded=0;entryX=0;entryY=0.5;entryDx=0;entryDy=0;exitX=1;exitY=0.5;exitDx=0;exitDy=0;" edge="1" parent="1" source="0s97cXIPQVOTWRCdV7om-14" target="0s97cXIPQVOTWRCdV7om-22">
          <mxGeometry relative="1" as="geometry">
            <mxPoint x="220" y="-980.5" as="sourcePoint" />
            <mxPoint x="380" y="-980.5" as="targetPoint" />
          </mxGeometry>
        </mxCell>
        <mxCell id="0s97cXIPQVOTWRCdV7om-24" value="학생" style="shape=table;startSize=30;container=1;collapsible=1;childLayout=tableLayout;fixedRows=1;rowLines=0;fontStyle=1;align=center;resizeLast=1;html=1;" vertex="1" parent="1">
          <mxGeometry x="110" y="-760" width="180" height="180" as="geometry" />
        </mxCell>
        <mxCell id="0s97cXIPQVOTWRCdV7om-25" value="" style="shape=tableRow;horizontal=0;startSize=0;swimlaneHead=0;swimlaneBody=0;fillColor=none;collapsible=0;dropTarget=0;points=[[0,0.5],[1,0.5]];portConstraint=eastwest;top=0;left=0;right=0;bottom=1;" vertex="1" parent="0s97cXIPQVOTWRCdV7om-24">
          <mxGeometry y="30" width="180" height="30" as="geometry" />
        </mxCell>
        <mxCell id="0s97cXIPQVOTWRCdV7om-26" value="PK" style="shape=partialRectangle;connectable=0;fillColor=none;top=0;left=0;bottom=0;right=0;fontStyle=1;overflow=hidden;whiteSpace=wrap;html=1;" vertex="1" parent="0s97cXIPQVOTWRCdV7om-25">
          <mxGeometry width="30" height="30" as="geometry">
            <mxRectangle width="30" height="30" as="alternateBounds" />
          </mxGeometry>
        </mxCell>
        <mxCell id="0s97cXIPQVOTWRCdV7om-27" value="number" style="shape=partialRectangle;connectable=0;fillColor=none;top=0;left=0;bottom=0;right=0;align=left;spacingLeft=6;fontStyle=5;overflow=hidden;whiteSpace=wrap;html=1;" vertex="1" parent="0s97cXIPQVOTWRCdV7om-25">
          <mxGeometry x="30" width="150" height="30" as="geometry">
            <mxRectangle width="150" height="30" as="alternateBounds" />
          </mxGeometry>
        </mxCell>
        <mxCell id="0s97cXIPQVOTWRCdV7om-28" value="" style="shape=tableRow;horizontal=0;startSize=0;swimlaneHead=0;swimlaneBody=0;fillColor=none;collapsible=0;dropTarget=0;points=[[0,0.5],[1,0.5]];portConstraint=eastwest;top=0;left=0;right=0;bottom=0;" vertex="1" parent="0s97cXIPQVOTWRCdV7om-24">
          <mxGeometry y="60" width="180" height="30" as="geometry" />
        </mxCell>
        <mxCell id="0s97cXIPQVOTWRCdV7om-29" value="" style="shape=partialRectangle;connectable=0;fillColor=none;top=0;left=0;bottom=0;right=0;editable=1;overflow=hidden;whiteSpace=wrap;html=1;" vertex="1" parent="0s97cXIPQVOTWRCdV7om-28">
          <mxGeometry width="30" height="30" as="geometry">
            <mxRectangle width="30" height="30" as="alternateBounds" />
          </mxGeometry>
        </mxCell>
        <mxCell id="0s97cXIPQVOTWRCdV7om-30" value="이름&lt;span style=&quot;white-space: pre;&quot;&gt;&#x9;&lt;/span&gt;" style="shape=partialRectangle;connectable=0;fillColor=none;top=0;left=0;bottom=0;right=0;align=left;spacingLeft=6;overflow=hidden;whiteSpace=wrap;html=1;" vertex="1" parent="0s97cXIPQVOTWRCdV7om-28">
          <mxGeometry x="30" width="150" height="30" as="geometry">
            <mxRectangle width="150" height="30" as="alternateBounds" />
          </mxGeometry>
        </mxCell>
        <mxCell id="0s97cXIPQVOTWRCdV7om-31" value="" style="shape=tableRow;horizontal=0;startSize=0;swimlaneHead=0;swimlaneBody=0;fillColor=none;collapsible=0;dropTarget=0;points=[[0,0.5],[1,0.5]];portConstraint=eastwest;top=0;left=0;right=0;bottom=0;" vertex="1" parent="0s97cXIPQVOTWRCdV7om-24">
          <mxGeometry y="90" width="180" height="30" as="geometry" />
        </mxCell>
        <mxCell id="0s97cXIPQVOTWRCdV7om-32" value="" style="shape=partialRectangle;connectable=0;fillColor=none;top=0;left=0;bottom=0;right=0;editable=1;overflow=hidden;whiteSpace=wrap;html=1;" vertex="1" parent="0s97cXIPQVOTWRCdV7om-31">
          <mxGeometry width="30" height="30" as="geometry">
            <mxRectangle width="30" height="30" as="alternateBounds" />
          </mxGeometry>
        </mxCell>
        <mxCell id="0s97cXIPQVOTWRCdV7om-33" value="전화번호" style="shape=partialRectangle;connectable=0;fillColor=none;top=0;left=0;bottom=0;right=0;align=left;spacingLeft=6;overflow=hidden;whiteSpace=wrap;html=1;" vertex="1" parent="0s97cXIPQVOTWRCdV7om-31">
          <mxGeometry x="30" width="150" height="30" as="geometry">
            <mxRectangle width="150" height="30" as="alternateBounds" />
          </mxGeometry>
        </mxCell>
        <mxCell id="0s97cXIPQVOTWRCdV7om-34" value="" style="shape=tableRow;horizontal=0;startSize=0;swimlaneHead=0;swimlaneBody=0;fillColor=none;collapsible=0;dropTarget=0;points=[[0,0.5],[1,0.5]];portConstraint=eastwest;top=0;left=0;right=0;bottom=0;" vertex="1" parent="0s97cXIPQVOTWRCdV7om-24">
          <mxGeometry y="120" width="180" height="30" as="geometry" />
        </mxCell>
        <mxCell id="0s97cXIPQVOTWRCdV7om-35" value="" style="shape=partialRectangle;connectable=0;fillColor=none;top=0;left=0;bottom=0;right=0;editable=1;overflow=hidden;whiteSpace=wrap;html=1;" vertex="1" parent="0s97cXIPQVOTWRCdV7om-34">
          <mxGeometry width="30" height="30" as="geometry">
            <mxRectangle width="30" height="30" as="alternateBounds" />
          </mxGeometry>
        </mxCell>
        <mxCell id="0s97cXIPQVOTWRCdV7om-36" value="e-mail" style="shape=partialRectangle;connectable=0;fillColor=none;top=0;left=0;bottom=0;right=0;align=left;spacingLeft=6;overflow=hidden;whiteSpace=wrap;html=1;" vertex="1" parent="0s97cXIPQVOTWRCdV7om-34">
          <mxGeometry x="30" width="150" height="30" as="geometry">
            <mxRectangle width="150" height="30" as="alternateBounds" />
          </mxGeometry>
        </mxCell>
        <mxCell id="0s97cXIPQVOTWRCdV7om-75" value="" style="shape=tableRow;horizontal=0;startSize=0;swimlaneHead=0;swimlaneBody=0;fillColor=none;collapsible=0;dropTarget=0;points=[[0,0.5],[1,0.5]];portConstraint=eastwest;top=0;left=0;right=0;bottom=1;fontStyle=0" vertex="1" parent="0s97cXIPQVOTWRCdV7om-24">
          <mxGeometry y="150" width="180" height="30" as="geometry" />
        </mxCell>
        <mxCell id="0s97cXIPQVOTWRCdV7om-76" value="" style="shape=partialRectangle;connectable=0;fillColor=none;top=0;left=0;bottom=0;right=0;fontStyle=1;overflow=hidden;whiteSpace=wrap;html=1;" vertex="1" parent="0s97cXIPQVOTWRCdV7om-75">
          <mxGeometry width="30" height="30" as="geometry">
            <mxRectangle width="30" height="30" as="alternateBounds" />
          </mxGeometry>
        </mxCell>
        <mxCell id="0s97cXIPQVOTWRCdV7om-77" value="&lt;span style=&quot;font-weight: normal;&quot;&gt;나이&lt;/span&gt;" style="shape=partialRectangle;connectable=0;fillColor=none;top=0;left=0;bottom=0;right=0;align=left;spacingLeft=6;fontStyle=1;overflow=hidden;whiteSpace=wrap;html=1;" vertex="1" parent="0s97cXIPQVOTWRCdV7om-75">
          <mxGeometry x="30" width="150" height="30" as="geometry">
            <mxRectangle width="150" height="30" as="alternateBounds" />
          </mxGeometry>
        </mxCell>
        <mxCell id="0s97cXIPQVOTWRCdV7om-50" value="학생" style="swimlane;childLayout=stackLayout;horizontal=1;startSize=50;horizontalStack=0;rounded=1;fontSize=14;fontStyle=0;strokeWidth=2;resizeParent=0;resizeLast=1;shadow=0;dashed=0;align=center;arcSize=4;whiteSpace=wrap;html=1;" vertex="1" parent="1">
          <mxGeometry x="390" y="-760" width="120" height="140" as="geometry" />
        </mxCell>
        <mxCell id="0s97cXIPQVOTWRCdV7om-51" value="+이름&lt;br&gt;+전화번호&lt;br&gt;+e-mail&lt;br&gt;+나이&lt;br&gt;&lt;u&gt;&lt;b&gt;+number(PK)&lt;/b&gt;&lt;/u&gt;" style="align=left;strokeColor=none;fillColor=none;spacingLeft=4;fontSize=12;verticalAlign=top;resizable=0;rotatable=0;part=1;html=1;" vertex="1" parent="0s97cXIPQVOTWRCdV7om-50">
          <mxGeometry y="50" width="120" height="90" as="geometry" />
        </mxCell>
        <mxCell id="0s97cXIPQVOTWRCdV7om-78" value="이후 테이블 정의서&lt;br&gt;&amp;nbsp;작성" style="rounded=0;whiteSpace=wrap;html=1;" vertex="1" parent="1">
          <mxGeometry x="20" y="-550" width="120" height="60" as="geometry" />
        </mxCell>
        <mxCell id="0s97cXIPQVOTWRCdV7om-79" value="개념적 모델링&lt;br&gt;ERD" style="rounded=0;whiteSpace=wrap;html=1;" vertex="1" parent="1">
          <mxGeometry x="50" y="-1120" width="120" height="60" as="geometry" />
        </mxCell>
        <mxCell id="0s97cXIPQVOTWRCdV7om-80" value="논리적모델링&lt;br&gt;RM(관계모델)&lt;br&gt;PK,FK결정" style="rounded=0;whiteSpace=wrap;html=1;" vertex="1" parent="1">
          <mxGeometry x="20" y="-830" width="120" height="60" as="geometry" />
        </mxCell>
      </root>
    </mxGraphModel>
  </diagram>
</mxfile>
